<svg width="18px" height="18px" viewBox="0 0 18 18" xmlns="http://www.w3.org/2000/svg">

<path style="opacity:.4;" d="M15.39032,1.78577H2.60968A2.18259,2.18259,0,0,0,.36938,3.90021V14.09979a2.18255,2.18255,0,0,0,2.2403,2.11444h12.7807a2.18253,2.18253,0,0,0,2.24024-2.11444V3.90021A2.18259,2.18259,0,0,0,15.39032,1.78577ZM8.48877,11.27618a1.1378,1.1378,0,0,1-1.13812,1.13807H3.93634a1.1377,1.1377,0,0,1-1.13812-1.138V6.72382A1.13781,1.13781,0,0,1,3.93634,5.58569H7.35065A1.13774,1.13774,0,0,1,8.48871,6.72375V7.86194H6.78162V7.29285H4.50537v3.4143H6.78162v-.56909H8.48877Zm6.80511-3.41424H13.58673V7.29285H11.31049v3.4143h2.27624v-.56909h1.70715v1.13812a1.13775,1.13775,0,0,1-1.13806,1.13813h-3.4143a1.1378,1.1378,0,0,1-1.13813-1.13806V6.72382a1.1378,1.1378,0,0,1,1.13813-1.13807h3.4143a1.13774,1.13774,0,0,1,1.13806,1.13807Z"/>


</svg>
