<svg width="18px" height="18px" viewBox="0 0 18 18" xmlns="http://www.w3.org/2000/svg">

<path d="M8.48876,7.86191H6.78161V7.29284H4.50538v3.41432H6.78161v-.56907H8.48876v1.13808a1.13777,1.13777,0,0,1-1.13808,1.13809H3.93636a1.1377,1.1377,0,0,1-1.13813-1.138V6.72383A1.13778,1.13778,0,0,1,3.93631,5.58569H7.35062A1.13777,1.13777,0,0,1,8.48871,6.72377V7.86191Zm6.80513,0H13.58673V7.29284H11.31051v3.41432h2.27622v-.56907h1.70716v1.13808a1.13778,1.13778,0,0,1-1.13809,1.13814H10.74149A1.13777,1.13777,0,0,1,9.6034,11.27623V6.72383a1.13777,1.13777,0,0,1,1.13809-1.13809H14.1558a1.13777,1.13777,0,0,1,1.13809,1.13809Z" />
<path d="M15.39037,16.21424H2.60968A2.18256,2.18256,0,0,1,.36936,14.09982V3.90021A2.18258,2.18258,0,0,1,2.60968,1.78576H15.39032a2.18258,2.18258,0,0,1,2.24032,2.11445V14.09982A2.18254,2.18254,0,0,1,15.39037,16.21424ZM3.21565,3.22025A1.2259,1.2259,0,0,0,1.93817,4.3838v9.23242a1.2259,1.2259,0,0,0,1.27748,1.16353H14.78439a1.22587,1.22587,0,0,0,1.27744-1.16353V4.3838a1.22591,1.22591,0,0,0-1.27748-1.16355Z" />


</svg>
